<svg xmlns="http://www.w3.org/2000/svg" viewBox="0 0 64 64"><style>.gotchi-secondary{fill:#cfeef4;}
        .gotchi-primary{fill:#b6509e;}
        .white{fill:#ffffff;}</style><g class="Layer_3"><g class="white"><path d="M27,6h10v2h-10z"/><path d="M23,8h4v2h-4z"/><path d="M37,8h4v2h-4z"/><path d="M19,10h4v2h-4z"/><path d="M41,10h4v2h-4z"/><path d="M17,12h2v2h-2z"/><path d="M45,12h2v2h-2z"/><path d="M15,14h2v39h-2z M15,53h4v2h-4z"/><path d="M47,14h2v39h-2z M45,53h4v2h-4z"/><path d="M19,51h5v2h-5z"/><path d="M29,51h6v2h-6z"/><path d="M40,51h5v2h-5z"/><path d="M24,53h5v2h-5z"/><path d="M35,53h5v2h-5z"/></g></g><g class="Layer_2"><g class="gotchi-secondary"><path d="M27,8h10v1h-10z M32,9h5v1h-5z"/><path d="M23,10h4v1h-4z"/><path d="M37,10h4v2h-4z"/><path d="M19,12h4v1h-4z"/><path d="M41,12h4v2h-4z"/><path d="M17,14h2v1h-2z M17,15h1v34h-1z M20,48h2v1h-2z M17,49h7v2h-7z M17,51h2v2h-2z"/><path d="M45,14h2v35h-2z M42,48h2v1h-2z M40,49h7v2h-7z M45,51h2v2h-2z"/><path d="M31,48h2v1h-2z M29,49h6v2h-6z"/><path d="M24,51h5v2h-5z"/><path d="M35,51h5v2h-5z"/></g></g><g class="Layer_1"><g class="gotchi-primary"><path d="M27,9h5v1h-5z M27,10h10v1h-10z M23,11h14v1h-14z M23,12h18v1h-18z M19,13h22v1h-22z M19,14h26v1h-26z M18,15h27v17h-27z M18,32h3v2h-3z M23,32h18v2h-18z M43,32h2v2h-2z M18,34h27v14h-27z M18,48h2v1h-2z M22,48h9v1h-9z M33,48h9v1h-9z M44,48h1v1h-1z M24,49h5v2h-5z M35,49h5v2h-5z"/></g></g><g class="Layer_4"><g class="white"><path d="M21,32h2v2h-2z"/><path d="M41,32h2v2h-2z"/></g></g></svg>